<svg width="27" height="25" viewBox="0 0 27 25" fill="none" xmlns="http://www.w3.org/2000/svg">
<path d="M8.98555 2.07422H17.6232C20.9137 2.07422 23.5872 4.74777 23.5872 8.03829V16.6759C23.5872 18.2577 22.9589 19.7747 21.8404 20.8931C20.7219 22.0116 19.2049 22.64 17.6232 22.64H8.98555C5.69503 22.64 3.02148 19.9664 3.02148 16.6759V8.03829C3.02148 6.45652 3.64984 4.93953 4.76832 3.82105C5.8868 2.70257 7.40378 2.07422 8.98555 2.07422ZM8.77989 4.13079C7.79811 4.13079 6.85653 4.52081 6.1623 5.21504C5.46807 5.90927 5.07806 6.85084 5.07806 7.83263V16.8816C5.07806 18.9279 6.7336 20.5834 8.77989 20.5834H17.8288C18.8106 20.5834 19.7522 20.1934 20.4464 19.4992C21.1406 18.8049 21.5307 17.8633 21.5307 16.8816V7.83263C21.5307 5.78634 19.8751 4.13079 17.8288 4.13079H8.77989ZM18.7029 5.67323C19.0438 5.67323 19.3707 5.80865 19.6118 6.0497C19.8528 6.29075 19.9882 6.61769 19.9882 6.95858C19.9882 7.29948 19.8528 7.62642 19.6118 7.86747C19.3707 8.10852 19.0438 8.24394 18.7029 8.24394C18.362 8.24394 18.035 8.10852 17.794 7.86747C17.5529 7.62642 17.4175 7.29948 17.4175 6.95858C17.4175 6.61769 17.5529 6.29075 17.794 6.0497C18.035 5.80865 18.362 5.67323 18.7029 5.67323ZM13.3044 7.21566C14.668 7.21566 15.9757 7.75734 16.9399 8.72155C17.9041 9.68576 18.4458 10.9935 18.4458 12.3571C18.4458 13.7207 17.9041 15.0284 16.9399 15.9926C15.9757 16.9568 14.668 17.4985 13.3044 17.4985C11.9408 17.4985 10.633 16.9568 9.66881 15.9926C8.70461 15.0284 8.16292 13.7207 8.16292 12.3571C8.16292 10.9935 8.70461 9.68576 9.66881 8.72155C10.633 7.75734 11.9408 7.21566 13.3044 7.21566ZM13.3044 9.27223C12.4862 9.27223 11.7016 9.59724 11.123 10.1758C10.5445 10.7543 10.2195 11.5389 10.2195 12.3571C10.2195 13.1753 10.5445 13.9599 11.123 14.5384C11.7016 15.1169 12.4862 15.442 13.3044 15.442C14.1225 15.442 14.9072 15.1169 15.4857 14.5384C16.0642 13.9599 16.3892 13.1753 16.3892 12.3571C16.3892 11.5389 16.0642 10.7543 15.4857 10.1758C14.9072 9.59724 14.1225 9.27223 13.3044 9.27223Z" fill="white"/>
</svg>
