<svg width="27" height="25" viewBox="0 0 27 25" fill="none" xmlns="http://www.w3.org/2000/svg">
<path d="M23.9005 14.683V22.64H19.2332V15.2157C19.2332 13.3502 18.5578 12.0778 16.8689 12.0778C15.5794 12.0778 14.8113 12.9362 14.4742 13.7654C14.3509 14.0619 14.3192 14.4749 14.3192 14.8901V22.64H9.64971C9.64971 22.64 9.71299 10.0667 9.64971 8.76305H14.3192V10.7299L14.2887 10.7752H14.3192V10.7299C14.9389 9.78638 16.0463 8.43739 18.5262 8.43739C21.5974 8.43739 23.9005 10.4215 23.9005 14.683ZM4.76634 2.07422C3.17019 2.07422 2.125 3.10941 2.125 4.47133C2.125 5.80305 3.13964 6.86951 4.70524 6.86951H4.73579C6.36467 6.86951 7.37604 5.80305 7.37604 4.47133C7.34767 3.10941 6.36467 2.07422 4.76634 2.07422ZM2.40212 22.64H7.06946V8.76305H2.40212V22.64Z" fill="white"/>
</svg>
