<svg width="80" height="59" viewBox="0 0 80 59" fill="none" xmlns="http://www.w3.org/2000/svg">
<path d="M60.5893 58.9844C70.7703 58.9844 79.0234 50.7289 79.0234 40.5443C79.0234 30.3634 70.7703 22.1079 60.5893 22.1079C60.5893 22.1079 60.6785 15.2583 66.243 5.39999C66.8611 3.42468 65.7593 1.32115 63.7828 0.706585C62.3804 0.26545 60.9047 0.694241 59.9517 1.69239C47.1566 15.6871 42.1482 32.158 42.1482 40.5443C42.1482 50.7289 50.4012 58.9844 60.5893 58.9844Z" fill="white"/>
<path d="M18.4643 58.9844C28.6453 58.9844 36.8984 50.7287 36.8984 40.5443C36.8984 30.3634 28.6453 22.1079 18.4643 22.1079C18.4643 22.1079 18.5535 15.2583 24.118 5.39999C24.7361 3.42468 23.6341 1.32115 21.6578 0.706589C20.2554 0.265453 18.7797 0.694244 17.8269 1.69239C5.03165 15.6871 0.0230179 32.158 0.0230179 40.5443C0.0230179 50.7289 8.27621 58.9844 18.4643 58.9844Z" fill="white"/>
</svg>
